PathFileType	4	(X/Y/Z)	Walk10.trc
DataRate	CameraRate	NumFrames	NumMarkers	Units	OrigDataRate	OrigDataStartFrame	OrigNumFrames
200.000000	200.000000	7	59	mm	200.000000	510	589
Frame#	Times		CLAV		RASI		RACR1		RUA1		RFA1		RWRU		LACR1		LFA1		LCAR		RTH3		RTH2		LTH4		LLFC		LTB1		LTB3		STRN		LTB4		LASI		RElbow		RTH1		RLFC		LTH2		LTH3		LToe		LTH1		LWRR		RBack		C7		RCAR		LTB2		LMT1		RTH4		LFHD		RWRR		LMMAL		T10		LMT5		RFHD		LLMAL		RBHD		RPSI		LPSI		LUA1		RTB2		LBHD		RTB4		LElbow		RTB1		RMT1		RElbowM		RTB3		RToe		RCAL		LElbowM		LCAL		LWRU		RMMAL		RLMAL		RMT5
			X1	Y1	Z1	X2	Y2	Z2	X3	Y3	Z3	X4	Y4	Z4	X5	Y5	Z5	X6	Y6	Z6	X7	Y7	Z7	X8	Y8	Z8	X9	Y9	Z9	X10	Y10	Z10	X11	Y11	Z11	X12	Y12	Z12	X13	Y13	Z13	X14	Y14	Z14	X15	Y15	Z15	X16	Y16	Z16	X17	Y17	Z17	X18	Y18	Z18	X19	Y19	Z19	X20	Y20	Z20	X21	Y21	Z21	X22	Y22	Z22	X23	Y23	Z23	X24	Y24	Z24	X25	Y25	Z25	X26	Y26	Z26	X27	Y27	Z27	X28	Y28	Z28	X29	Y29	Z29	X30	Y30	Z30	X31	Y31	Z31	X32	Y32	Z32	X33	Y33	Z33	X34	Y34	Z34	X35	Y35	Z35	X36	Y36	Z36	X37	Y37	Z37	X38	Y38	Z38	X39	Y39	Z39	X40	Y40	Z40	X41	Y41	Z41	X42	Y42	Z42	X43	Y43	Z43	X44	Y44	Z44	X45	Y45	Z45	X46	Y46	Z46	X47	Y47	Z47	X48	Y48	Z48	X49	Y49	Z49	X50	Y50	Z50	X51	Y51	Z51	X52	Y52	Z52	X53	Y53	Z53	X54	Y54	Z54	X55	Y55	Z55	X56	Y56	Z56	X57	Y57	Z57	X58	Y58	Z58	X59	Y59	Z59

510	2.55	702.54	1339.4	-29.632	730.77	936.78	124.09	653.01	1353.6	143.34	651	1145.7	214.08	741	918.18	237.55	748.76	805.23	245.86	636.65	1345.4	-198.38	572.77	899.5	-262.66	554.2	738.62	-270.33	630.42	543.85	137.85	696.89	644.52	121.48	698.71	648.48	-160.36	747.5	458.18	-128.53	786.14	362.77	-49.012	778.88	175.26	-46.204	787.56	1117.7	-18.889	784.27	267.24	-51.471	743.35	934.7	-133.06	641.18	1038.7	244.15	633.45	730.86	167.39	609.93	447.64	124.97	766.14	672.99	-131.48	726.77	565.34	-141.3	933.23	30.811	-77.902	670.75	739.6	-179	572.17	778.83	-228.31	534.79	1308.7	76.909	573.28	1411.7	-25.344	806.62	785.06	239.19	757.91	269.01	-117.88	891.42	37.743	-51.602	630.76	636.61	149.41	732.44	1584.3	-56.307	792.31	830.54	191.76	758.42	74.646	-10.042	546.67	1127.7	-12.882	849.79	21.169	-128.28	735.48	1587.6	16.666	741.49	60.685	-89.62	565.44	1539.2	45.947	516.51	969.36	54.853	520.42	968.48	-60.834	587.06	1141.4	-238.1	473.53	296.3	133.23	565.6	1545	-83.436	480.58	278.79	64.35	547.82	1027.9	-245.06	556.91	331.86	62.145	355.71	50.569	49.888	623.61	1012.3	163.08	405.65	224.85	65.832	378.39	28.461	79.738	248.89	205.99	68.528	534.74	1017.4	-175.28	694.29	28.403	-34.693	515.48	790.37	-272.97	323.69	183.6	39.95	296.19	187.61	115.4	312.33	55.906	123.33
511	2.555	708.2	1340.1	-30.144	736.62	937.86	123.46	658.4	1354.4	142.73	655.3	1146.4	213.4	743.66	918.13	237.31	750.35	805.16	245.93	642.7	1346.2	-198.98	580.53	899.93	-262.99	562.17	738.94	-270.47	640.39	544.22	137.75	705.69	645.66	121.48	702.66	648.62	-160.82	750.4	458.12	-128.81	788.54	362.48	-49.253	779.8	175.01	-46.266	793.11	1118.4	-19.25	785.91	266.97	-51.622	749.08	935.47	-133.43	644.74	1039.4	243.24	640.88	731.38	166.74	621.12	448.21	125.2	770.43	672.75	-132.43	730.22	565.35	-141.64	933.43	30.763	-78.113	675.24	739.87	-179.63	579.75	779.33	-228.44	540.29	1309.4	76.11	578.94	1412.4	-26.134	808.03	784.32	239.47	759.44	268.84	-118.02	891.4	37.788	-51.54	639.41	637.05	149.01	738.25	1585	-56.914	794.38	829.89	191.9	758.5	74.614	-9.9878	552.32	1128.4	-13.524	849.76	21.233	-128.3	741.23	1588.3	16.058	741.53	60.71	-89.546	571.14	1540	45.227	522.01	969.9	54.269	525.94	969.28	-61.377	594.1	1141.9	-238.79	483.91	298.5	133.76	571.38	1545.8	-84.162	490.66	280.82	64.879	555.22	1028.3	-245.89	567.59	333.09	62.511	361.86	52.85	51.05	627.72	1013.3	162.08	415.17	227.68	66.516	383.3	29.657	80.704	258.28	211.1	69.448	541.71	1017.9	-176.06	694.28	28.41	-34.662	523.42	790.69	-273.6	332.81	187.33	40.86	305.29	191.78	116.33	318.57	59.482	123.81
512	2.56	713.82	1340.8	-30.631	742.39	938.93	122.92	663.75	1355.3	142.15	659.53	1147.1	212.76	746.27	918.07	237.09	751.87	805.08	246	648.71	1347	-199.56	588.36	900.34	-263.31	570.28	739.25	-270.62	650.29	544.71	137.65	714.42	646.88	121.49	706.53	648.75	-161.25	753.19	458.04	-129.07	790.83	362.18	-49.48	780.67	174.77	-46.327	798.61	1119.2	-19.574	787.48	266.69	-51.764	754.71	936.22	-133.82	648.27	1040.2	242.36	648.27	731.97	166.11	632.29	448.9	125.41	774.62	672.48	-133.32	733.58	565.34	-141.96	933.62	30.723	-78.344	679.67	740.14	-180.24	587.43	779.82	-228.56	545.76	1310.2	75.317	584.56	1413.1	-26.892	809.37	783.57	239.74	760.92	268.68	-118.17	891.38	37.839	-51.499	648.03	637.61	148.64	744.04	1585.7	-57.487	796.39	829.23	192.04	758.57	74.585	-9.9378	557.96	1129.1	-14.154	849.73	21.287	-128.31	746.97	1589	15.483	741.55	60.728	-89.478	576.83	1540.8	44.545	527.49	970.45	53.687	531.43	970.07	-61.913	601.12	1142.4	-239.47	494.37	300.68	134.19	577.15	1546.6	-84.848	500.84	282.88	65.295	562.66	1028.8	-246.71	578.32	334.41	62.798	368.76	55.239	52.279	631.8	1014.3	161.11	424.84	230.47	67.067	389.11	31.077	81.824	267.83	215.83	70.168	548.7	1018.4	-176.84	694.28	28.417	-34.629	531.48	790.99	-274.24	342.14	190.92	41.599	314.59	195.79	117.1	325.48	63.089	124.37
513	2.565	719.41	1341.6	-31.095	748.09	940	122.46	669.06	1356.1	141.62	663.72	1147.9	212.16	748.83	917.99	236.88	753.35	804.99	246.07	654.68	1347.7	-200.11	596.26	900.75	-263.63	578.51	739.55	-270.76	660.11	545.32	137.54	723.09	648.18	121.49	710.33	648.86	-161.64	755.88	457.95	-129.31	793.03	361.88	-49.692	781.5	174.53	-46.384	804.08	1119.8	-19.866	788.98	266.41	-51.895	760.23	936.95	-134.23	651.79	1040.9	241.49	655.61	732.65	165.53	643.4	449.72	125.58	778.73	672.19	-134.13	736.87	565.32	-142.28	933.8	30.683	-78.585	684.04	740.39	-180.8	595.19	780.3	-228.67	551.19	1310.9	74.533	590.16	1413.9	-27.616	810.64	782.81	240.01	762.36	268.5	-118.32	891.36	37.89	-51.475	656.58	638.28	148.31	749.82	1586.3	-58.025	798.33	828.55	192.18	758.65	74.56	-9.8917	563.57	1129.9	-14.775	849.71	21.33	-128.33	752.71	1589.6	14.943	741.57	60.741	-89.417	582.5	1541.6	43.903	532.97	971.04	53.112	536.89	970.86	-62.438	608.12	1142.9	-240.13	504.91	302.85	134.51	582.9	1547.4	-85.495	511.11	284.95	65.601	570.12	1029.2	-247.53	589.08	335.82	63.007	376.43	57.707	53.573	635.85	1015.2	160.15	434.67	233.21	67.486	395.84	32.707	83.087	277.52	220.18	70.679	555.72	1018.8	-177.62	694.27	28.425	-34.596	539.66	791.25	-274.9	351.68	194.34	42.166	324.09	199.62	117.71	333.08	66.689	125.01
514	2.57	724.97	1342.3	-31.538	753.71	941.05	122.08	674.35	1356.9	141.12	667.86	1148.5	211.59	751.34	917.89	236.7	754.77	804.9	246.15	660.59	1348.5	-200.63	604.23	901.14	-263.94	586.87	739.83	-270.9	669.8	546.04	137.44	731.66	649.55	121.5	714.08	648.97	-162.01	758.48	457.85	-129.54	795.14	361.58	-49.886	782.29	174.29	-46.436	809.51	1120.5	-20.128	790.42	266.13	-52.015	765.63	937.65	-134.68	655.3	1041.6	240.65	662.9	733.41	164.98	654.46	450.67	125.73	782.77	671.88	-134.87	740.1	565.3	-142.58	933.97	30.642	-78.832	688.37	740.64	-181.33	603.03	780.78	-228.77	556.59	1311.7	73.76	595.75	1414.6	-28.306	811.86	782.05	240.26	763.76	268.32	-118.46	891.34	37.94	-51.467	665.07	639.07	148.02	755.6	1587	-58.529	800.2	827.86	192.31	758.72	74.535	-9.8495	569.16	1130.6	-15.385	849.7	21.363	-128.34	758.44	1590.3	14.437	741.59	60.748	-89.364	588.17	1542.4	43.3	538.43	971.66	52.55	542.32	971.65	-62.949	615.1	1143.4	-240.78	515.5	304.98	134.73	588.64	1548.2	-86.102	521.48	287.02	65.801	577.61	1029.6	-248.34	599.86	337.3	63.141	384.87	60.217	54.924	639.86	1016.1	159.22	444.64	235.87	67.776	403.51	34.52	84.479	287.35	224.11	70.979	562.74	1019.2	-178.4	694.27	28.435	-34.564	547.96	791.48	-275.56	361.41	197.58	42.563	333.77	203.25	118.15	341.36	70.244	125.73
515	2.575	730.51	1343	-31.961	759.24	942.07	121.78	679.6	1357.6	140.66	671.95	1149.2	211.06	753.81	917.78	236.53	756.15	804.8	246.22	666.47	1349.2	-201.12	612.26	901.52	-264.23	595.36	740.11	-271.04	679.38	546.87	137.33	740.12	650.99	121.52	717.77	649.07	-162.34	761.01	457.73	-129.76	797.16	361.28	-50.062	783.04	174.06	-46.48	814.92	1121.1	-20.364	791.79	265.86	-52.12	770.92	938.33	-135.15	658.8	1042.2	239.83	670.11	734.24	164.47	665.45	451.75	125.84	786.75	671.57	-135.53	743.29	565.27	-142.87	934.13	30.596	-79.078	692.68	740.9	-181.82	610.97	781.24	-228.85	561.96	1312.4	73.001	601.31	1415.4	-28.962	813.01	781.29	240.51	765.14	268.13	-118.6	891.32	37.985	-51.472	673.46	639.96	147.77	761.36	1587.6	-59	802.02	827.16	192.45	758.79	74.512	-9.8121	574.72	1131.4	-15.988	849.68	21.387	-128.35	764.17	1590.9	13.965	741.61	60.751	-89.317	593.84	1543.2	42.735	543.89	972.3	52.004	547.72	972.43	-63.444	622.07	1143.8	-241.4	526.13	307.1	134.85	594.37	1549	-86.67	531.93	289.08	65.9	585.12	1029.9	-249.13	610.66	338.86	63.202	394.04	62.73	56.327	643.83	1017	158.32	454.75	238.44	67.942	412.08	36.478	85.985	297.31	227.61	71.069	569.79	1019.5	-179.19	694.27	28.449	-34.536	556.38	791.69	-276.22	371.33	200.61	42.792	343.62	206.66	118.42	350.31	73.718	126.53
516	2.58	736.03	1343.7	-32.366	764.69	943.05	121.53	684.83	1358.4	140.23	676.02	1149.9	210.56	756.24	917.65	236.37	757.48	804.69	246.3	672.29	1350	-201.58	620.36	901.9	-264.52	603.97	740.4	-271.18	688.81	547.81	137.23	748.48	652.5	121.56	721.43	649.18	-162.64	763.48	457.61	-129.96	799.11	360.97	-50.219	783.76	173.84	-46.517	820.3	1121.8	-20.579	793.11	265.58	-52.211	776.1	938.99	-135.66	662.3	1042.9	239.03	677.26	735.14	164.01	676.36	452.95	125.92	790.67	671.24	-136.12	746.44	565.25	-143.15	934.28	30.546	-79.317	696.95	741.15	-182.28	618.99	781.7	-228.93	567.31	1313.2	72.259	606.86	1416.1	-29.584	814.1	780.52	240.76	766.51	267.95	-118.74	891.3	38.023	-51.486	681.77	640.95	147.57	767.12	1588.3	-59.437	803.77	826.46	192.58	758.85	74.487	-9.7802	580.25	1132.1	-16.584	849.67	21.402	-128.36	769.89	1591.5	13.527	741.62	60.751	-89.278	599.49	1544	42.208	549.35	972.99	51.48	553.09	973.21	-63.919	629.01	1144.3	-242	536.79	309.18	134.87	600.08	1549.9	-87.2	542.46	291.1	65.905	592.65	1030.2	-249.9	621.47	340.46	63.194	403.9	65.205	57.776	647.77	1017.8	157.43	465.01	240.89	67.991	421.51	38.535	87.593	307.4	230.69	70.95	576.85	1019.8	-179.97	694.27	28.466	-34.511	564.92	791.88	-276.88	381.45	203.42	42.858	353.64	209.84	118.52	359.91	77.077	127.41
